<svg xmlns="http://www.w3.org/2000/svg" xmlns:xlink="http://www.w3.org/1999/xlink" width="131" height="130" version="1.1" viewBox="0 0 131 130"><title>iconly-glass-chart</title><defs><filter id="filter-1" width="201.7%" height="198.4%" x="-50.8%" y="-49.2%" filterUnits="objectBoundingBox"><feGaussianBlur in="SourceGraphic" stdDeviation="10"/></filter><linearGradient id="linearGradient-2" x1="100%" x2="0%" y1="0%" y2="100%"><stop offset="0%" stop-color="#FFF" stop-opacity=".25"/><stop offset="100%" stop-color="#FFF" stop-opacity="0"/></linearGradient><linearGradient id="linearGradient-3" x1="62.166%" x2="3.149%" y1="54.141%" y2="111.698%"><stop offset="0%" stop-color="#FFA78F"/><stop offset="100%" stop-color="#F23E2C"/></linearGradient><linearGradient id="linearGradient-4" x1="55.982%" x2="-18.016%" y1="56.696%" y2="92.838%"><stop offset="0%" stop-color="#FFA78F"/><stop offset="100%" stop-color="#F23E2C"/></linearGradient><filter id="filter-5" width="175%" height="167.6%" x="-37.5%" y="-33.8%" filterUnits="objectBoundingBox"><feGaussianBlur in="SourceGraphic" stdDeviation="8"/></filter><linearGradient id="linearGradient-6" x1="-13.717%" x2="25.611%" y1="73.474%" y2="161.544%"><stop offset="0%" stop-color="#FFF"/><stop offset="100%" stop-color="#FFF" stop-opacity=".2"/></linearGradient><path id="path-7" d="M22.4813484,2.48689958e-14 C20.5721813,2.48689958e-14 19,1.5169209 19,3.39498939 L19,44.6410749 C19,46.4830791 20.5721813,48 22.4813484,48 C24.4278187,48 26,46.4830791 26,44.6410749 L26,3.39498939 C26,1.5169209 24.4278187,2.48689958e-14 22.4813484,2.48689958e-14 Z M3.48124364,13 C1.57218131,13 -1.77635684e-14,14.4874907 -1.77635684e-14,16.3292214 L-1.77635684e-14,43.7062423 C-1.77635684e-14,45.5125093 1.57218131,47 3.48124364,47 C5.42781869,47 7,45.5125093 7,43.7062423 L7,16.3292214 C7,14.4874907 5.42781869,13 3.48124364,13 Z M37,31.4057582 C37,29.5217325 38.5721813,28 40.5187564,28 C42.4278187,28 44,29.5217325 44,31.4057582 L44,44.6304205 C44,46.4782675 42.4278187,48 40.4812436,48 C38.5721813,48 37,46.4782675 37,44.6304205 L37,31.4057582 Z"/></defs><g id="Page-1" fill="none" fill-rule="evenodd" stroke="none" stroke-width="1"><g id="iconly-glass-chart" transform="translate(18.000000, 17.000000)"><g id="Group" fill="#FF624D" fill-rule="nonzero" opacity=".5" transform="translate(12.000000, 13.000000)"><path id="Path" d="M58.2186794,36.0981584 L51.7114845,11.4327961 C49.3511926,2.48608174 43.4437864,-1.52554587 35.6763276,0.526386047 L9.36892852,7.4759119 C1.47411793,9.56144772 -1.58292142,15.941203 0.777370451,24.8879173 L7.2845654,49.55318 C9.68292328,58.6441817 15.4496247,62.5355532 23.3444353,60.4500174 L49.651934,53.5003918 C57.4192932,51.4485596 60.6170373,45.1890604 58.2186794,36.0981584 Z" filter="url(#filter-1)"/></g><g id="Group" fill="#FFAC95" fill-opacity=".35" fill-rule="nonzero" stroke="url(#linearGradient-2)" stroke-linecap="round" stroke-linejoin="round" stroke-width="2" transform="translate(25.000000, 18.000000)"><path id="Path" d="M58.7025725,0 L21.3334672,0 C7.71559794,0 0,7.71554953 0,21.3333333 L0,58.6666667 C0,72.2844505 7.71559794,80 21.3334672,80 L58.7025725,80 C72.3204417,80 80,72.2844505 80,58.6666667 L80,21.3333333 C80,7.71554953 72.3204417,0 58.7025725,0"/></g><path id="Path" fill="url(#linearGradient-3)" fill-rule="nonzero" d="M16.1663238,10.7217215 L52.3373389,1.04684696 C65.518591,-2.47883652 74.9534146,2.98715572 78.4849855,16.1439344 L79,18.0625945 L46.3395327,18.0625945 C32.6945664,18.0625945 24.9636158,25.7799096 24.9636158,39.4008096 L24.9636158,76.7426861 C24.9636158,81.6098251 25.950794,85.723176 27.8421645,89 C19.4085008,88.3664044 13.3887663,82.8261077 10.7312112,72.9255486 L1.04938175,36.8560848 C-2.48219316,23.6993864 2.98512197,14.2474652 16.1663238,10.7217215 Z"/><g id="Group" fill="url(#linearGradient-4)" fill-rule="nonzero" opacity=".5" transform="translate(25.000000, 18.000000)"><path id="Path" d="M53.8209356,0 L21.2907285,0 C7.70014081,0 0,7.71746194 0,21.3386211 L0,58.681208 C0,63.5484396 0.983243972,67.6619692 2.8670769,70.9387551 C5.62975803,71.147213 8.6526271,70.8247861 11.9019208,69.9521948 L47.9287855,60.277076 C61.057507,56.7513656 66.4687552,47.3085026 62.9512585,34.1514535 L53.8209356,0 Z" filter="url(#filter-5)"/></g><g id="Group" transform="translate(44.000000, 35.000000)"><path id="Shape" fill="url(#linearGradient-6)" d="M22.4813484,2.48689958e-14 C20.5721813,2.48689958e-14 19,1.5169209 19,3.39498939 L19,44.6410749 C19,46.4830791 20.5721813,48 22.4813484,48 C24.4278187,48 26,46.4830791 26,44.6410749 L26,3.39498939 C26,1.5169209 24.4278187,2.48689958e-14 22.4813484,2.48689958e-14 Z M3.48124364,13 C1.57218131,13 -1.77635684e-14,14.4874907 -1.77635684e-14,16.3292214 L-1.77635684e-14,43.7062423 C-1.77635684e-14,45.5125093 1.57218131,47 3.48124364,47 C5.42781869,47 7,45.5125093 7,43.7062423 L7,16.3292214 C7,14.4874907 5.42781869,13 3.48124364,13 Z M37,31.4057582 C37,29.5217325 38.5721813,28 40.5187564,28 C42.4278187,28 44,29.5217325 44,31.4057582 L44,44.6304205 C44,46.4782675 42.4278187,48 40.4812436,48 C38.5721813,48 37,46.4782675 37,44.6304205 L37,31.4057582 Z"/><g id="Clipped"><mask id="mask-8" fill="#fff"><use xlink:href="#path-7"/></mask></g></g></g></g></svg>