<svg xmlns="http://www.w3.org/2000/svg" xmlns:xlink="http://www.w3.org/1999/xlink" width="107" height="105" version="1.1" viewBox="0 0 107 105"><title>iconly-glass-info</title><defs><linearGradient id="linearGradient-1" x1="100%" x2="0%" y1="0%" y2="100%"><stop offset="0%" stop-color="#FFF" stop-opacity=".25"/><stop offset="100%" stop-color="#FFF" stop-opacity="0"/></linearGradient><filter id="filter-2" width="211.6%" height="184.2%" x="-55.8%" y="-42.1%" filterUnits="objectBoundingBox"><feGaussianBlur in="SourceGraphic" stdDeviation="8"/></filter><linearGradient id="linearGradient-3" x1="48.827%" x2="50.829%" y1="11.051%" y2="95.903%"><stop offset="0%" stop-color="#FFF" stop-opacity=".25"/><stop offset="100%" stop-color="#FFF" stop-opacity="0"/></linearGradient></defs><g id="Page-1" fill="none" fill-rule="evenodd" stroke="none" stroke-width="1"><g id="iconly-glass-info" fill-rule="nonzero" transform="translate(1.000000, 17.000000)"><path id="Path" fill="#3EA0FE" fill-opacity=".35" stroke="url(#linearGradient-1)" stroke-linecap="round" stroke-linejoin="round" stroke-width="2" d="M0,46.4999498 C0,24.1481764 18.1441599,6 40.4999498,6 C62.8965075,6 81,24.1478751 81,46.4999498 C81,68.8602583 62.8965075,87 40.4999498,87 C18.1440594,87 0,68.8598567 0,46.4999498 Z"/><path id="Path" fill="#4096FE" d="M50,7.19687424 C55.4903821,2.69932897 62.5047477,0 70.1444751,0 C87.7605253,0 102,14.3002036 102,31.9129738 C102,47.0414188 91.5018455,59.7182493 77.3821273,63 C79.5570564,58.0105063 80.7629834,52.5000332 80.7629834,46.7079282 C80.7629834,27.6433171 67.6884218,11.6202119 50,7.19687424 Z"/><g id="Group" fill="#4096FE" opacity=".5" transform="translate(39.000000, 7.000000)"><path id="Path" d="M39.5772699,56.1686423 C41.7791369,51.1464668 43,45.5998996 43,39.7698557 C43,20.5802689 29.763401,4.45231097 11.8559978,0 C4.6208167,5.89268185 0,14.852112 0,24.8779927 C0,42.6125529 14.4479887,57 32.2499748,57 C34.7711166,57 37.223828,56.712508 39.5772699,56.1686423 Z" filter="url(#filter-2)"/></g><path id="Combined-Shape" fill="#FFF" fill-opacity=".9" stroke="url(#linearGradient-3)" stroke-width=".4" d="M40.5200115,28 C38.6000144,28 37,29.6247841 37,31.5656315 L37,49.4748485 C37,51.4237719 38.6000144,53 40.5200115,53 C42.4400086,53 44,51.4237719 44,49.4748485 L44,31.5656315 C44,29.6247841 42.4400086,28 40.5200115,28 Z M37,62.4800191 C37,64.399955 38.5599914,66 40.5200115,66 C42.4400086,66 44,64.399955 44,62.4800191 C44,60.5599848 42.4400086,59 40.4799885,59 C38.5599914,59 37,60.5599848 37,62.4800191 Z"/></g></g></svg>