<svg xmlns="http://www.w3.org/2000/svg" width="135" height="187" fill="none" viewBox="0 0 135 187"><path fill="#FFA000" d="M88.321 67.6916L69.7457 84.976L52.5089 50.2094L61.4279 30.216C63.6856 26.2079 67.369 26.2002 69.6266 30.216L88.321 67.6916Z"/><path fill="#F57F17" d="M69.7457 84.9755L0.331177 149.55L52.5089 50.2089L69.7457 84.9755Z"/><path fill="#FFCA28" d="M108.637 41.2725C111.956 38.0829 115.387 39.1708 116.261 43.6902L134.329 148.685L74.4343 184.582C72.3382 185.739 66.7877 186.241 66.7877 186.241C66.7877 186.241 61.7214 185.635 59.7904 184.564L0.329102 149.547L108.637 41.2725Z"/><path fill="#FFA000" d="M52.5089 50.2089L0.331177 149.55L23.572 4.36026C24.4278 -0.162642 27.0023 -0.598214 29.2993 3.39403L52.5089 50.2089Z"/></svg>