<svg xmlns="http://www.w3.org/2000/svg" width="177" height="177" fill="none" viewBox="0 0 177 177"><path fill="#627EEA" d="M88.606 176.241C137.207 176.241 176.606 136.842 176.606 88.2411C176.606 39.64 137.207 0.241089 88.606 0.241089C40.0049 0.241089 0.605957 39.64 0.605957 88.2411C0.605957 136.842 40.0049 176.241 88.606 176.241Z"/><path fill="#fff" fill-opacity=".602" d="M91.3449 22.2411V71.0261L132.578 89.4511L91.3449 22.2411Z"/><path fill="#fff" d="M91.3449 22.2411L50.106 89.4511L91.3449 71.0261V22.2411Z"/><path fill="#fff" fill-opacity=".602" d="M91.3449 121.065V154.214L132.606 97.1292L91.3449 121.065Z"/><path fill="#fff" d="M91.3449 154.214V121.06L50.106 97.1292L91.3449 154.214Z"/><path fill="#fff" fill-opacity=".2" d="M91.3449 113.393L132.578 89.4511L91.3449 71.0371V113.393Z"/><path fill="#fff" fill-opacity=".602" d="M50.106 89.4511L91.3449 113.393V71.0371L50.106 89.4511Z"/></svg>