<svg xmlns="http://www.w3.org/2000/svg" width="64" height="84" fill="none" viewBox="0 0 64 84"><g filter="url(#filter0_ddd_14337_183747)"><path fill="url(#paint0_linear_14337_183747)" d="M6 6C6 4.34315 7.34315 3 9 3L36.3712 3C37.296 3 38.1691 3.42653 38.7376 4.156L57.3664 28.0619C57.777 28.5888 58 29.2378 58 29.9059V72C58 73.6569 56.6569 75 55 75H9C7.34314 75 6 73.6569 6 72V6Z"/><path stroke="url(#paint1_linear_14337_183747)" d="M55 74.5H9C7.61929 74.5 6.5 73.3807 6.5 72V6C6.5 4.61929 7.61929 3.5 9 3.5H36.3712C37.1419 3.5 37.8695 3.85544 38.3432 4.46333L56.972 28.3692C57.3142 28.8083 57.5 29.3491 57.5 29.9059V72C57.5 73.3807 56.3807 74.5 55 74.5Z"/></g><g filter="url(#filter1_ddd_14337_183747)"><path fill="url(#paint2_linear_14337_183747)" d="M47.3878 15.1765L36.7755 3V25.875C36.7755 27.5319 38.1187 28.875 39.7755 28.875H58L47.3878 15.1765Z"/><path stroke="url(#paint3_linear_14337_183747)" stroke-width=".5" d="M47.1945 15.3353L57.4901 28.625H39.7755C38.2567 28.625 37.0255 27.3938 37.0255 25.875V3.66735L47.1945 15.3353Z"/></g><rect width="29.714" height="4.5" x="16.612" y="49.125" fill="#B3B9C6" rx="2"/><rect width="16.98" height="4.5" x="22.98" y="40.125" fill="#FF6C47" rx="2"/><defs><filter id="filter0_ddd_14337_183747" width="64" height="84" x="0" y="0" color-interpolation-filters="sRGB" filterUnits="userSpaceOnUse"><feFlood flood-opacity="0" result="BackgroundImageFix"/><feColorMatrix in="SourceAlpha" result="hardAlpha" type="matrix" values="0 0 0 0 0 0 0 0 0 0 0 0 0 0 0 0 0 0 127 0"/><feOffset/><feComposite in2="hardAlpha" operator="out"/><feColorMatrix type="matrix" values="0 0 0 0 0 0 0 0 0 0 0 0 0 0 0 0 0 0 0.04 0"/><feBlend in2="BackgroundImageFix" mode="normal" result="effect1_dropShadow_14337_183747"/><feColorMatrix in="SourceAlpha" result="hardAlpha" type="matrix" values="0 0 0 0 0 0 0 0 0 0 0 0 0 0 0 0 0 0 127 0"/><feOffset dy="1"/><feGaussianBlur stdDeviation="1.5"/><feComposite in2="hardAlpha" operator="out"/><feColorMatrix type="matrix" values="0 0 0 0 0 0 0 0 0 0 0 0 0 0 0 0 0 0 0.07 0"/><feBlend in2="effect1_dropShadow_14337_183747" mode="normal" result="effect2_dropShadow_14337_183747"/><feColorMatrix in="SourceAlpha" result="hardAlpha" type="matrix" values="0 0 0 0 0 0 0 0 0 0 0 0 0 0 0 0 0 0 127 0"/><feOffset dy="3"/><feGaussianBlur stdDeviation="3"/><feComposite in2="hardAlpha" operator="out"/><feColorMatrix type="matrix" values="0 0 0 0 0 0 0 0 0 0 0 0 0 0 0 0 0 0 0.05 0"/><feBlend in2="effect2_dropShadow_14337_183747" mode="normal" result="effect3_dropShadow_14337_183747"/><feBlend in="SourceGraphic" in2="effect3_dropShadow_14337_183747" mode="normal" result="shape"/></filter><filter id="filter1_ddd_14337_183747" width="25.224" height="30.625" x="34.776" y="2.25" color-interpolation-filters="sRGB" filterUnits="userSpaceOnUse"><feFlood flood-opacity="0" result="BackgroundImageFix"/><feColorMatrix in="SourceAlpha" result="hardAlpha" type="matrix" values="0 0 0 0 0 0 0 0 0 0 0 0 0 0 0 0 0 0 127 0"/><feOffset/><feComposite in2="hardAlpha" operator="out"/><feColorMatrix type="matrix" values="0 0 0 0 0 0 0 0 0 0 0 0 0 0 0 0 0 0 0.04 0"/><feBlend in2="BackgroundImageFix" mode="normal" result="effect1_dropShadow_14337_183747"/><feColorMatrix in="SourceAlpha" result="hardAlpha" type="matrix" values="0 0 0 0 0 0 0 0 0 0 0 0 0 0 0 0 0 0 127 0"/><feOffset dy="2"/><feGaussianBlur stdDeviation="1"/><feComposite in2="hardAlpha" operator="out"/><feColorMatrix type="matrix" values="0 0 0 0 0 0 0 0 0 0 0 0 0 0 0 0 0 0 0.13 0"/><feBlend in2="effect1_dropShadow_14337_183747" mode="normal" result="effect2_dropShadow_14337_183747"/><feColorMatrix in="SourceAlpha" result="hardAlpha" type="matrix" values="0 0 0 0 0 0 0 0 0 0 0 0 0 0 0 0 0 0 127 0"/><feOffset dy=".25"/><feGaussianBlur stdDeviation=".5"/><feComposite in2="hardAlpha" operator="out"/><feColorMatrix type="matrix" values="0 0 0 0 0 0 0 0 0 0 0 0 0 0 0 0 0 0 0.13 0"/><feBlend in2="effect2_dropShadow_14337_183747" mode="normal" result="effect3_dropShadow_14337_183747"/><feBlend in="SourceGraphic" in2="effect3_dropShadow_14337_183747" mode="normal" result="shape"/></filter><linearGradient id="paint0_linear_14337_183747" x1="32" x2="32" y1="3" y2="75" gradientUnits="userSpaceOnUse"><stop stop-color="#fff"/><stop offset="1" stop-color="#EFEFEF"/></linearGradient><linearGradient id="paint1_linear_14337_183747" x1="31.469" x2="31.469" y1="75" y2="6.375" gradientUnits="userSpaceOnUse"><stop stop-color="#fff"/><stop offset="1" stop-color="#fff" stop-opacity="0"/></linearGradient><linearGradient id="paint2_linear_14337_183747" x1="35.361" x2="45.998" y1="28.875" y2="30.194" gradientUnits="userSpaceOnUse"><stop stop-color="#FAFAFA"/><stop offset="1" stop-color="#EDEDED"/></linearGradient><linearGradient id="paint3_linear_14337_183747" x1="49.51" x2="47.874" y1="44.096" y2="16.712" gradientUnits="userSpaceOnUse"><stop stop-color="#fff"/><stop offset="1" stop-color="#fff" stop-opacity="0"/></linearGradient></defs></svg>