<svg xmlns="http://www.w3.org/2000/svg" width="120" height="64" fill="none" viewBox="0 0 120 64"><rect width="119" height="63" x=".5" y=".5" fill="#F4F5F7" rx="3.5"/><rect width="119" height="63" x=".5" y=".5" stroke="#D7DADD" rx="3.5"/><path fill="#231F20" d="M86.1994 52.4262V52.5341H86.3001C86.319 52.5344 86.3376 52.5297 86.354 52.5204C86.3606 52.5157 86.3659 52.5095 86.3694 52.5023C86.373 52.4951 86.3746 52.4871 86.3743 52.4791C86.3746 52.4712 86.3729 52.4634 86.3694 52.4563C86.3658 52.4493 86.3606 52.4433 86.354 52.4388C86.3378 52.4291 86.319 52.4243 86.3001 52.4251H86.1994V52.4262ZM86.3011 52.3498C86.3443 52.3471 86.387 52.3595 86.422 52.3849C86.4361 52.3964 86.4472 52.411 86.4546 52.4276C86.462 52.4442 86.4653 52.4623 86.4644 52.4804C86.4651 52.496 86.4624 52.5116 86.4565 52.5261C86.4506 52.5405 86.4417 52.5536 86.4304 52.5643C86.4034 52.5878 86.3695 52.6019 86.3338 52.6046L86.4687 52.7584H86.3648L86.2407 52.6056H86.2005V52.7584H86.1136V52.35H86.3025L86.3011 52.3498ZM86.2741 52.8993C86.3197 52.8997 86.3649 52.8905 86.4067 52.8723C86.4469 52.855 86.4836 52.8301 86.5146 52.7992C86.5457 52.7682 86.5705 52.7316 86.5878 52.6912C86.6232 52.6057 86.6232 52.5095 86.5878 52.424C86.5703 52.3838 86.5455 52.3472 86.5146 52.316C86.4836 52.2851 86.4469 52.2603 86.4067 52.2429C86.3646 52.2257 86.3196 52.217 86.2741 52.2175C86.2279 52.2171 86.1821 52.2257 86.1392 52.2429C86.098 52.2599 86.0605 52.2848 86.0288 52.316C85.9811 52.365 85.9488 52.427 85.936 52.4941C85.9231 52.5613 85.9304 52.6308 85.9567 52.6939C85.9732 52.7344 85.9977 52.7711 86.0288 52.8019C86.0605 52.8331 86.098 52.858 86.1392 52.875C86.1818 52.8932 86.2278 52.9024 86.2741 52.902V52.8993ZM86.2741 52.1193C86.3928 52.1192 86.5067 52.1657 86.5913 52.2488C86.6321 52.2888 86.6645 52.3364 86.6868 52.3889C86.7099 52.4429 86.7218 52.5009 86.7218 52.5596C86.7218 52.6183 86.7099 52.6764 86.6868 52.7303C86.664 52.7826 86.6316 52.8301 86.5913 52.8704C86.5499 52.9101 86.5017 52.9421 86.449 52.9649C86.3937 52.9884 86.3342 53.0003 86.2741 53C86.2134 53.0004 86.1531 52.9885 86.0971 52.9649C86.0438 52.9426 85.9952 52.9106 85.9538 52.8704C85.9134 52.8286 85.8815 52.7795 85.8596 52.7257C85.8365 52.6718 85.8246 52.6137 85.8246 52.555C85.8246 52.4964 85.8365 52.4383 85.8596 52.3843C85.8819 52.3318 85.9143 52.2842 85.9551 52.2443C85.996 52.2034 86.0448 52.1712 86.0984 52.1498C86.1545 52.1262 86.2147 52.1143 86.2755 52.1147L86.2741 52.1193ZM44.9478 50.5423C44.9478 49.7636 45.4579 49.124 46.2917 49.124C47.0884 49.124 47.626 49.7361 47.626 50.5423C47.626 51.3485 47.0884 51.9606 46.2917 51.9606C45.4579 51.9606 44.9478 51.3209 44.9478 50.5423ZM48.5342 50.5423V48.3265H47.571V48.8662C47.2654 48.4673 46.802 48.2172 46.1718 48.2172C44.9303 48.2172 43.956 49.1909 43.956 50.5434C43.956 51.8958 44.9298 52.8696 46.1718 52.8696C46.8018 52.8696 47.2654 52.6191 47.571 52.2205V52.7584H48.5331V50.5423H48.5342ZM81.0814 50.5423C81.0814 49.7636 81.5915 49.124 82.4254 49.124C83.223 49.124 83.7598 49.7361 83.7598 50.5423C83.7598 51.3485 83.223 51.9606 82.4254 51.9606C81.5917 51.9606 81.0814 51.3209 81.0814 50.5423ZM84.6688 50.5423V46.5479H83.7047V48.8662C83.3992 48.4673 82.9358 48.2172 82.3056 48.2172C81.0641 48.2172 80.0898 49.1909 80.0898 50.5434C80.0898 51.8958 81.0636 52.8696 82.3056 52.8696C82.9358 52.8696 83.3992 52.6191 83.7047 52.2205V52.7584H84.6688V50.5423ZM60.4895 49.0784C61.1102 49.0784 61.5089 49.4676 61.6106 50.1528H59.3122C59.415 49.5132 59.8034 49.0784 60.4897 49.0784H60.4895ZM60.5089 48.2147C59.2107 48.2147 58.3025 49.1594 58.3025 50.5409C58.3025 51.9495 59.2471 52.8672 60.5734 52.8672C61.2406 52.8672 61.8516 52.7006 62.3893 52.2464L61.9172 51.5325C61.5458 51.8294 61.073 51.9959 60.6285 51.9959C60.0077 51.9959 59.4425 51.7085 59.3036 50.911H62.5928C62.6022 50.7911 62.6119 50.6702 62.6119 50.5407C62.6022 49.1596 61.7483 48.2145 60.5084 48.2145L60.5089 48.2147ZM72.1381 50.5407C72.1381 49.762 72.6482 49.1224 73.4819 49.1224C74.2787 49.1224 74.8163 49.7345 74.8163 50.5407C74.8163 51.3469 74.2787 51.959 73.4819 51.959C72.6482 51.959 72.1379 51.3193 72.1379 50.5407H72.1381ZM75.7242 50.5407V48.3265H74.7615V48.8662C74.4549 48.4673 73.9926 48.2172 73.3624 48.2172C72.1209 48.2172 71.1465 49.1909 71.1465 50.5434C71.1465 51.8958 72.1203 52.8696 73.3624 52.8696C73.9926 52.8696 74.4549 52.6191 74.7615 52.2205V52.7584H75.7245V50.5423L75.7242 50.5407ZM66.6984 50.5407C66.6984 51.8845 67.6339 52.8669 69.0616 52.8669C69.7288 52.8669 70.1733 52.7185 70.654 52.3387L70.1914 51.5601C69.8297 51.82 69.45 51.959 69.0308 51.959C68.2619 51.9495 67.6965 51.3935 67.6965 50.5407C67.6965 49.6878 68.2619 49.1321 69.0308 49.1224C69.4489 49.1224 69.8286 49.2614 70.1914 49.5213L70.654 48.7426C70.1725 48.3629 69.728 48.2145 69.0616 48.2145C67.6339 48.2145 66.6984 49.1966 66.6984 50.5407ZM79.1163 48.2145C78.5606 48.2145 78.1986 48.4744 77.9484 48.8636V48.3265H76.9938V52.756H77.9581V50.2729C77.9581 49.5399 78.2731 49.1326 78.9028 49.1326C79.109 49.1297 79.3137 49.1675 79.5052 49.2441L79.8021 48.3362C79.5888 48.2522 79.3109 48.2153 79.1157 48.2153L79.1163 48.2145ZM53.2965 48.6787C52.8331 48.3732 52.1945 48.2153 51.4901 48.2153C50.3679 48.2153 49.6454 48.7532 49.6454 49.6333C49.6454 50.3555 50.1833 50.8011 51.1738 50.9401L51.6288 51.0049C52.157 51.0791 52.4064 51.2181 52.4064 51.4683C52.4064 51.8108 52.0555 52.0062 51.3967 52.0062C50.7295 52.0062 50.248 51.793 49.9234 51.5428L49.4707 52.2939C49.9989 52.6831 50.6661 52.8688 51.3886 52.8688C52.6679 52.8688 53.4093 52.2664 53.4093 51.423C53.4093 50.6443 52.8258 50.237 51.8617 50.098L51.4078 50.0322C50.9908 49.9782 50.6567 49.8943 50.6567 49.5974C50.6567 49.2735 50.9716 49.0787 51.5001 49.0787C52.0655 49.0787 52.6129 49.2919 52.8811 49.4584L53.2981 48.6798L53.2965 48.6787ZM65.7254 48.2161C65.1697 48.2161 64.8078 48.476 64.5587 48.8652V48.3265H63.6041V52.756H64.5673V50.2729C64.5673 49.5399 64.8823 49.1326 65.5119 49.1326C65.7181 49.1297 65.9229 49.1675 66.1143 49.2441L66.4112 48.3362C66.198 48.2522 65.92 48.2153 65.7249 48.2153L65.7254 48.2161ZM57.5055 48.3265H55.9304V46.9827H54.9566V48.3265H54.0581V49.2069H54.9566V51.2276C54.9566 52.2553 55.3555 52.8674 56.495 52.8674C56.9131 52.8674 57.3946 52.7379 57.7001 52.5249L57.4218 51.7001C57.1344 51.8667 56.8194 51.9506 56.569 51.9506C56.0875 51.9506 55.9304 51.6537 55.9304 51.2092V49.2077H57.5055V48.3265ZM43.1042 52.7571V49.9771C43.1042 48.9302 42.437 48.2258 41.3615 48.2163C40.7961 48.2069 40.2128 48.3829 39.8045 49.0044C39.4989 48.5132 39.0174 48.2163 38.3406 48.2163C37.8674 48.2163 37.4051 48.3553 37.0432 48.8741V48.3265H36.0791V52.756H37.0507V50.2999C37.0507 49.531 37.4772 49.1224 38.1357 49.1224C38.7754 49.1224 39.099 49.5394 39.099 50.2902V52.7554H40.0727V50.2994C40.0727 49.5305 40.5173 49.1218 41.1566 49.1218C41.8144 49.1218 42.1283 49.5388 42.1283 50.2897V52.7549L43.1042 52.7571Z"/><path fill="#F79410" d="M86.7496 38.0218V37.374H86.5809L86.3858 37.8185L86.1918 37.374H86.0225V38.0218H86.1424V37.5338L86.3248 37.9548H86.449L86.6314 37.5327V38.0218H86.7502H86.7496ZM85.6795 38.0218V37.485H85.8954V37.3756H85.3438V37.485H85.5597V38.0218H85.6784H85.6795Z"/><path fill="#FF5F00" d="M67.578 40.8012H52.9805V14.5674H67.5783L67.578 40.8012Z"/><path fill="#EB001B" d="M53.9051 27.6841C53.9051 22.3626 56.3968 17.6222 60.2768 14.5672C57.3398 12.2514 53.7073 10.9945 49.9671 11C40.7537 11 33.2852 18.4696 33.2852 27.6841C33.2852 36.8986 40.7537 44.3682 49.9671 44.3682C53.7073 44.3738 57.34 43.1169 60.2771 40.801C56.3973 37.7466 53.9051 33.0059 53.9051 27.6841Z"/><path fill="#F79E1B" d="M87.2706 27.6841C87.2706 36.8986 79.8021 44.3682 70.5887 44.3682C66.848 44.3737 63.2149 43.1168 60.2773 40.801C64.1584 37.7461 66.6501 33.0059 66.6501 27.6841C66.6501 22.3623 64.1584 17.6222 60.2773 14.5672C63.2149 12.2514 66.8478 10.9946 70.5884 11C79.8018 11 87.2703 18.4696 87.2703 27.6841"/></svg>