<svg xmlns="http://www.w3.org/2000/svg" width="120" height="64" fill="none" viewBox="0 0 120 64"><rect width="119" height="63" x=".5" y=".5" fill="#F4F5F7" rx="3.5"/><rect width="119" height="63" x=".5" y=".5" stroke="#D7DADD" rx="3.5"/><path fill="#2566AF" d="M54.8266 42.6849H49.0242L52.6506 20.3982H58.4536L54.8266 42.6849ZM44.1429 20.3982L38.6112 35.7272L37.9566 32.4263L37.9572 32.4274L36.0048 22.4049C36.0048 22.4049 35.7687 20.3982 33.2523 20.3982H24.1073L24 20.7756C24 20.7756 26.7966 21.3574 30.0695 23.323L35.1105 42.6855H41.1561L50.3876 20.3982H44.1429ZM89.7815 42.6849H95.1094L90.4641 20.3976H85.7998C83.6459 20.3976 83.1213 22.0585 83.1213 22.0585L74.4675 42.6849H80.5161L81.7257 39.3744H89.1019L89.7815 42.6849ZM83.3967 34.8013L86.4454 26.4611L88.1606 34.8013H83.3967ZM74.9212 25.7577L75.7492 20.9717C75.7492 20.9717 73.1941 20 70.5305 20C67.6511 20 60.8132 21.2585 60.8132 27.378C60.8132 33.1357 68.8386 33.2072 68.8386 36.2315C68.8386 39.2558 61.64 38.7139 59.2644 36.8068L58.4017 41.8109C58.4017 41.8109 60.9926 43.0694 64.9511 43.0694C68.9107 43.0694 74.8842 41.0192 74.8842 35.4392C74.8842 29.6446 66.7866 29.1051 66.7866 26.5857C66.7872 24.0658 72.4382 24.3895 74.9212 25.7577Z"/><path fill="#E6A540" d="M37.9572 32.4267L36.0048 22.4041C36.0048 22.4041 35.7687 20.3975 33.2523 20.3975H24.1073L24 20.7748C24 20.7748 28.3955 21.6858 32.6115 25.0987C36.6427 28.3609 37.9572 32.4267 37.9572 32.4267Z"/></svg>